<svg width="261" height="123" viewBox="0 0 261 123" fill="none" xmlns="http://www.w3.org/2000/svg">
<path d="M40.5123 6.36596L38.5499 17.4045H15.8595L15.3076 20.4708H29.4124C31.5383 20.4708 33.2759 21.1454 34.6251 22.4945C35.9742 23.8437 36.6488 25.5403 36.6488 27.5845C36.6488 28.0751 36.6079 28.5657 36.5261 29.0563L35.5449 34.5756C35.1361 36.9468 33.93 38.9706 31.9267 40.6468C29.9643 42.323 27.7975 43.1611 25.4263 43.1611H0.282892L2.2453 32.1226H24.9357L25.4876 29.0563H11.3828C9.25683 29.0563 7.51928 28.3817 6.17012 27.0326C4.82096 25.6834 4.14639 24.0072 4.14639 22.0039C4.14639 21.4724 4.18727 20.9614 4.26904 20.4708L5.25024 14.9515C5.65908 12.5803 6.8447 10.5565 8.80711 8.88029C10.8104 7.20407 12.9977 6.36596 15.3689 6.36596H40.5123ZM75.9149 13.4797C75.9149 13.9703 75.8741 14.4609 75.7923 14.9515L74.8111 20.4708C74.4023 22.842 73.2166 24.8658 71.2542 26.542C69.2918 28.2182 67.125 29.0563 64.7537 29.0563H50.6489L48.1346 43.1611H37.096L43.5965 6.36596H68.7399C70.8249 6.36596 72.542 7.04054 73.8912 8.38969C75.2404 9.73885 75.9149 11.4355 75.9149 13.4797ZM64.3245 17.4045H52.6727L52.1207 20.4708H63.7725L64.3245 17.4045ZM114.139 6.36596L107.638 43.1611H96.5995L99.1139 29.0563H87.4621L84.9477 43.1611H73.9092L80.4097 6.36596H91.4482L88.9339 20.4708H100.586L103.1 6.36596H114.139ZM150.952 6.36596L145.984 34.5756C145.576 36.9468 144.369 38.9706 142.366 40.6468C140.404 42.323 138.237 43.1611 135.866 43.1611H119.308C117.223 43.1611 115.506 42.4866 114.157 41.1374C112.807 39.7882 112.133 38.0916 112.133 36.0474C112.133 35.5568 112.174 35.0662 112.255 34.5756L117.223 6.36596H128.261L123.723 32.1226H135.375L139.913 6.36596H150.952ZM186.354 13.4797C186.354 13.9703 186.313 14.4609 186.232 14.9515L185.251 20.4708C185.046 21.7382 184.004 23.1691 182.123 24.7635C183.227 26.1536 183.779 27.3801 183.779 28.4431C183.779 28.6475 183.779 28.8519 183.779 29.0563L181.264 43.1611H170.226L172.74 29.0563H161.088L158.574 43.1611H147.535L154.036 6.36596H179.179C181.264 6.36596 182.981 7.04054 184.331 8.38969C185.68 9.73885 186.354 11.4355 186.354 13.4797ZM174.764 17.4045H163.112L162.56 20.4708H174.212L174.764 17.4045ZM224.578 6.36596L222.616 17.4045H211.27L206.732 43.1611H195.694L200.232 17.4045H188.887L190.849 6.36596H224.578ZM238.701 6.36596L232.2 43.1611H221.162L227.662 6.36596H238.701Z" fill="#010020"/>
<path d="M5.39034 57.1943H11.6286L8.37852 77.5364H2L5.39034 57.1943Z" fill="#7F1BB6"/>
<path d="M15.0192 57.1943H21.2575L18.0074 77.5364H11.6289L15.0192 57.1943Z" fill="#7F1BB6"/>
<path d="M24.6482 57.1943H30.8864L27.6363 77.5364H21.2578L24.6482 57.1943Z" fill="#7F1BB6"/>
<path d="M34.2707 57.1943H228.338L224.812 77.5364H30.8848L34.2707 57.1943Z" fill="#7F1BB6"/>
<path d="M47.4003 64.0343L46.9181 66.7466H44.1305L43.0155 73.0752H40.3032L41.4183 66.7466H38.6306L39.1128 64.0343H47.4003ZM56.4457 64.0343L54.8484 73.0752H52.1362L52.754 69.6095H49.891L49.2732 73.0752H46.5609L48.1582 64.0343H50.8704L50.2526 67.5H53.1156L53.7334 64.0343H56.4457ZM64.7376 64.0343L64.2554 66.7466H59.4336L59.298 67.5H64.1198L63.7582 69.6095H58.9363L58.8007 70.3629H63.6225L63.1404 73.0752H55.6063L57.2035 64.0343H64.7376ZM77.3798 73.0752H74.6675L74.5771 71.8697H72.0155L71.5032 73.0752H68.7909L72.6484 64.0343H76.7168L77.3798 73.0752ZM74.4264 69.6095L74.2004 66.7466L72.995 69.6095H74.4264ZM87.3009 65.7822C87.3009 65.9027 87.2908 66.0233 87.2707 66.1438L86.0502 73.0752H83.3379L84.453 66.7466H81.59L80.475 73.0752H77.7627L79.3599 64.0343H85.5379C86.0502 64.0343 86.4721 64.2 86.8036 64.5315C87.1351 64.863 87.3009 65.2799 87.3009 65.7822ZM96.3462 65.7822C96.3462 65.9027 96.3361 66.0233 96.3161 66.1438L95.0955 73.0752H92.3833L93.4983 66.7466H90.6353L89.5203 73.0752H86.808L88.4053 64.0343H94.5832C95.0955 64.0343 95.5174 64.2 95.8489 64.5315C96.1804 64.863 96.3462 65.2799 96.3462 65.7822ZM105.738 64.0343L104.518 70.9656C104.417 71.5483 104.121 72.0455 103.629 72.4574C103.146 72.8693 102.614 73.0752 102.031 73.0752H97.9629C97.4506 73.0752 97.0287 72.9094 96.6972 72.5779C96.3657 72.2464 96.1999 71.8296 96.1999 71.3273C96.1999 71.2067 96.21 71.0862 96.2301 70.9656L97.4506 64.0343H100.163L99.0478 70.3629H101.911L103.026 64.0343H105.738ZM113.111 73.0752H110.399L110.308 71.8697H107.747L107.234 73.0752H104.522L108.379 64.0343H112.448L113.111 73.0752ZM110.157 69.6095L109.931 66.7466L108.726 69.6095H110.157ZM121.51 70.3629L121.028 73.0752H113.494L115.091 64.0343H117.803L116.688 70.3629H121.51ZM136.94 64.0343L136.458 66.7466H130.882L130.747 67.5H134.213C134.735 67.5 135.162 67.6657 135.493 67.9972C135.825 68.3287 135.991 68.7456 135.991 69.2479C135.991 69.3684 135.981 69.489 135.96 69.6095L135.719 70.9656C135.619 71.5483 135.323 72.0455 134.83 72.4574C134.348 72.8693 133.816 73.0752 133.233 73.0752H127.055L127.537 70.3629H133.113L133.248 69.6095H129.782C129.26 69.6095 128.833 69.4438 128.502 69.1123C128.17 68.7808 128.004 68.3689 128.004 67.8767C128.004 67.7461 128.014 67.6205 128.035 67.5L128.276 66.1438C128.376 65.5612 128.667 65.0639 129.15 64.6521C129.642 64.2402 130.179 64.0343 130.762 64.0343H136.94ZM145.639 65.7822C145.639 65.9027 145.629 66.0233 145.608 66.1438L145.367 67.5C145.267 68.0826 144.976 68.5798 144.493 68.9917C144.011 69.4036 143.479 69.6095 142.896 69.6095H139.431L138.813 73.0752H136.1L137.698 64.0343H143.876C144.388 64.0343 144.81 64.2 145.141 64.5315C145.473 64.863 145.639 65.2799 145.639 65.7822ZM142.791 66.7466H139.928L139.792 67.5H142.655L142.791 66.7466ZM154.684 65.7822C154.684 65.9027 154.674 66.0233 154.654 66.1438L153.81 70.9656C153.71 71.5483 153.413 72.0455 152.921 72.4574C152.439 72.8693 151.906 73.0752 151.324 73.0752H147.255C146.743 73.0752 146.321 72.9094 145.99 72.5779C145.658 72.2464 145.492 71.8296 145.492 71.3273C145.492 71.2067 145.502 71.0862 145.522 70.9656L146.366 66.1438C146.467 65.5612 146.758 65.0639 147.24 64.6521C147.733 64.2402 148.27 64.0343 148.853 64.0343H152.921C153.433 64.0343 153.855 64.2 154.187 64.5315C154.518 64.863 154.684 65.2799 154.684 65.7822ZM151.836 66.7466H148.973L148.34 70.3629H151.203L151.836 66.7466ZM163.729 65.7822C163.729 65.9027 163.719 66.0233 163.699 66.1438L163.458 67.5C163.408 67.8114 163.152 68.163 162.69 68.5547C162.961 68.8963 163.096 69.1976 163.096 69.4588C163.096 69.5091 163.096 69.5593 163.096 69.6095L162.479 73.0752H159.766L160.384 69.6095H157.521L156.903 73.0752H154.191L155.788 64.0343H161.966C162.479 64.0343 162.901 64.2 163.232 64.5315C163.564 64.863 163.729 65.2799 163.729 65.7822ZM160.881 66.7466H158.018L157.883 67.5H160.746L160.881 66.7466ZM173.121 64.0343L172.639 66.7466H169.851L168.736 73.0752H166.024L167.139 66.7466H164.352L164.834 64.0343H173.121ZM182.167 64.0343L181.684 66.7466H176.109L175.974 67.5H179.439C179.962 67.5 180.388 67.6657 180.72 67.9972C181.051 68.3287 181.217 68.7456 181.217 69.2479C181.217 69.3684 181.207 69.489 181.187 69.6095L180.946 70.9656C180.846 71.5483 180.549 72.0455 180.057 72.4574C179.575 72.8693 179.042 73.0752 178.46 73.0752H172.282L172.764 70.3629H178.339L178.475 69.6095H175.009C174.487 69.6095 174.06 69.4438 173.728 69.1123C173.397 68.7808 173.231 68.3689 173.231 67.8767C173.231 67.7461 173.241 67.6205 173.261 67.5L173.502 66.1438C173.603 65.5612 173.894 65.0639 174.376 64.6521C174.869 64.2402 175.406 64.0343 175.989 64.0343H182.167ZM195.729 64.0343L195.247 66.7466H190.425L190.29 67.5H195.112L194.75 69.6095H189.928L189.31 73.0752H186.598L188.195 64.0343H195.729ZM204.02 64.0343L203.538 66.7466H198.716L198.58 67.5H203.402L203.04 69.6095H198.219L198.083 70.3629H202.905L202.423 73.0752H194.888L196.486 64.0343H204.02ZM213.064 64.0343L212.582 66.7466H207.006L206.871 67.5H210.336C210.859 67.5 211.286 67.6657 211.617 67.9972C211.949 68.3287 212.114 68.7456 212.114 69.2479C212.114 69.3684 212.104 69.489 212.084 69.6095L211.843 70.9656C211.743 71.5483 211.446 72.0455 210.954 72.4574C210.472 72.8693 209.94 73.0752 209.357 73.0752H203.179L203.661 70.3629H209.236L209.372 69.6095H205.906C205.384 69.6095 204.957 69.4438 204.625 69.1123C204.294 68.7808 204.128 68.3689 204.128 67.8767C204.128 67.7461 204.138 67.6205 204.158 67.5L204.399 66.1438C204.5 65.5612 204.791 65.0639 205.273 64.6521C205.766 64.2402 206.303 64.0343 206.886 64.0343H213.064ZM222.109 64.0343L221.627 66.7466H218.839L217.724 73.0752H215.012L216.127 66.7466H213.339L213.822 64.0343H222.109Z" fill="white"/>
<path d="M231.73 57.1943H237.968L234.718 77.5364H228.34L231.73 57.1943Z" fill="#7F1BB6"/>
<path d="M241.359 57.1943H247.597L244.347 77.5364H237.969L241.359 57.1943Z" fill="#7F1BB6"/>
<path d="M250.986 57.1943H257.224L253.974 77.5364H247.596L250.986 57.1943Z" fill="#7F1BB6"/>
<path d="M43.7516 104.639C42.9277 104.639 42.2412 104.477 41.692 104.153C41.1428 103.828 40.7559 103.375 40.5312 102.792C40.3149 102.201 40.2857 101.507 40.4438 100.708L41.4299 95.7773H43.0526L42.0665 100.683C41.9916 101.107 41.9708 101.482 42.0041 101.806C42.0457 102.122 42.1455 102.389 42.3036 102.605C42.4701 102.813 42.6864 102.967 42.9527 103.067C43.2273 103.167 43.5477 103.217 43.9138 103.217C44.3798 103.217 44.7792 103.129 45.1121 102.954C45.4533 102.78 45.7362 102.505 45.9609 102.131C46.1938 101.748 46.3728 101.261 46.4976 100.67L47.4712 95.7773H49.0689L48.0703 100.783C47.8123 102.064 47.3214 103.029 46.5974 103.678C45.8735 104.319 44.9249 104.639 43.7516 104.639ZM49.6064 104.515L51.3538 95.7773H52.6894L56.6711 102.555L56.1594 102.493L57.4949 95.7773H59.1051L57.3576 104.515H56.0221L52.0528 97.737L52.5646 97.7994L51.2165 104.515H49.6064ZM59.7114 104.515L61.4588 95.7773H63.0815L61.6086 103.142H66.177L65.9024 104.515H59.7114ZM69.6923 99.4095H74.0485L73.7864 100.745H69.4302L69.6923 99.4095ZM69.0682 103.154H74.0111L73.7365 104.515H67.1835L68.9309 95.7773H75.3092L75.0346 97.1378H70.2665L69.0682 103.154ZM74.3097 104.515L79.9889 95.7773H81.5991L83.771 104.515H82.1608L80.3384 96.6136H80.9875L76.0446 104.515H74.3097ZM76.5314 102.493L77.2179 101.219H81.9236L82.1358 102.493H76.5314ZM87.753 104.639C87.2953 104.639 86.8501 104.594 86.4174 104.502C85.993 104.411 85.6019 104.29 85.2441 104.14C84.8946 103.982 84.6034 103.807 84.3704 103.616L85.0569 102.343C85.2982 102.543 85.5728 102.713 85.8807 102.855C86.1886 102.996 86.5131 103.104 86.8543 103.179C87.2038 103.254 87.5533 103.291 87.9028 103.291C88.3272 103.291 88.6975 103.241 89.0137 103.142C89.3299 103.042 89.5712 102.9 89.7376 102.717C89.9124 102.534 89.9997 102.314 89.9997 102.056C89.9997 101.823 89.9207 101.635 89.7626 101.494C89.6045 101.344 89.3923 101.224 89.126 101.132C88.868 101.032 88.581 100.941 88.2647 100.857C87.9569 100.766 87.6448 100.666 87.3286 100.558C87.0124 100.441 86.7253 100.3 86.4673 100.133C86.2094 99.9587 85.9972 99.7382 85.8308 99.4719C85.6727 99.2057 85.5936 98.8728 85.5936 98.4734C85.5936 97.8992 85.7517 97.4041 86.0679 96.988C86.3925 96.5637 86.8376 96.235 87.4035 96.002C87.9777 95.769 88.6434 95.6525 89.4006 95.6525C89.9664 95.6525 90.5032 95.7149 91.0108 95.8397C91.5184 95.9645 91.9552 96.1476 92.3214 96.3889L91.6848 97.6746C91.3603 97.4582 90.9941 97.2918 90.5864 97.1753C90.1786 97.0588 89.7543 97.0005 89.3132 97.0005C88.8805 97.0005 88.5061 97.0546 88.1899 97.1628C87.8736 97.271 87.6323 97.4208 87.4659 97.6121C87.2995 97.8035 87.2121 98.0282 87.2038 98.2862C87.2038 98.5275 87.2828 98.723 87.4409 98.8728C87.599 99.0143 87.8071 99.1349 88.065 99.2348C88.323 99.3346 88.6101 99.4303 88.9263 99.5219C89.2425 99.6051 89.5545 99.7008 89.8624 99.809C90.1786 99.9171 90.4699 100.054 90.7362 100.221C91.0024 100.387 91.2146 100.599 91.3727 100.857C91.5309 101.107 91.6099 101.423 91.6099 101.806C91.6099 102.38 91.4476 102.88 91.1231 103.304C90.8069 103.728 90.3575 104.057 89.7751 104.29C89.2009 104.523 88.5269 104.639 87.753 104.639ZM100.633 95.7773H102.243L100.496 104.515H98.8857L100.633 95.7773ZM94.3672 104.515H92.7446L94.4921 95.7773H96.1147L94.3672 104.515ZM99.7594 100.77H95.0038L95.2659 99.3846H100.047L99.7594 100.77ZM108.434 104.515L109.12 101.032L109.307 102.081L106.761 95.7773H108.371L110.406 100.82L109.457 100.832L113.539 95.7773H115.236L110.194 102.093L110.743 101.032L110.044 104.515H108.434ZM118.542 104.639C117.66 104.639 116.907 104.481 116.283 104.165C115.659 103.849 115.18 103.412 114.848 102.855C114.523 102.289 114.361 101.64 114.361 100.907C114.361 100.167 114.486 99.4803 114.735 98.8479C114.985 98.2071 115.347 97.6496 115.821 97.1753C116.295 96.701 116.861 96.3307 117.519 96.0644C118.176 95.7898 118.908 95.6525 119.716 95.6525C120.589 95.6525 121.338 95.8106 121.962 96.1268C122.586 96.443 123.065 96.884 123.398 97.4499C123.731 98.0074 123.897 98.6523 123.897 99.3846C123.897 100.125 123.768 100.816 123.51 101.457C123.26 102.089 122.898 102.642 122.424 103.117C121.95 103.591 121.384 103.965 120.727 104.24C120.077 104.506 119.349 104.639 118.542 104.639ZM118.68 103.217C119.229 103.217 119.724 103.121 120.165 102.929C120.606 102.73 120.98 102.459 121.288 102.118C121.604 101.769 121.846 101.369 122.012 100.92C122.179 100.462 122.262 99.9837 122.262 99.4844C122.262 99.0101 122.158 98.5899 121.95 98.2238C121.742 97.8576 121.438 97.5747 121.039 97.375C120.639 97.1753 120.148 97.0754 119.566 97.0754C119.025 97.0754 118.53 97.1753 118.08 97.375C117.639 97.5664 117.261 97.8368 116.945 98.1863C116.637 98.5275 116.399 98.9269 116.233 99.3846C116.075 99.8339 115.996 100.308 115.996 100.808C115.996 101.282 116.096 101.702 116.295 102.068C116.503 102.434 116.807 102.717 117.207 102.917C117.606 103.117 118.097 103.217 118.68 103.217ZM128.675 104.639C127.851 104.639 127.165 104.477 126.615 104.153C126.066 103.828 125.679 103.375 125.455 102.792C125.238 102.201 125.209 101.507 125.367 100.708L126.353 95.7773H127.976L126.99 100.683C126.915 101.107 126.894 101.482 126.928 101.806C126.969 102.122 127.069 102.389 127.227 102.605C127.394 102.813 127.61 102.967 127.876 103.067C128.151 103.167 128.471 103.217 128.837 103.217C129.303 103.217 129.703 103.129 130.036 102.954C130.377 102.78 130.66 102.505 130.884 102.131C131.117 101.748 131.296 101.261 131.421 100.67L132.395 95.7773H133.992L132.994 100.783C132.736 102.064 132.245 103.029 131.521 103.678C130.797 104.319 129.848 104.639 128.675 104.639ZM134.53 104.515L136.277 95.7773H139.672C140.729 95.7773 141.545 96.0103 142.119 96.4763C142.701 96.934 142.993 97.5789 142.993 98.411C142.993 99.1433 142.822 99.7757 142.481 100.308C142.148 100.832 141.669 101.24 141.045 101.531C140.421 101.814 139.681 101.956 138.824 101.956H135.978L136.814 101.219L136.165 104.515H134.53ZM140.271 104.515L138.487 101.344H140.209L141.994 104.515H140.271ZM136.777 101.407L136.227 100.62H138.874C139.664 100.62 140.276 100.446 140.708 100.096C141.141 99.7466 141.357 99.2348 141.357 98.5608C141.357 98.0865 141.195 97.7328 140.871 97.4998C140.554 97.2668 140.097 97.1503 139.498 97.1503H136.951L137.8 96.339L136.777 101.407ZM147.109 104.515L148.857 95.7773H152.227C153.284 95.7773 154.099 96.0103 154.673 96.4763C155.256 96.9423 155.547 97.5872 155.547 98.411C155.547 99.1516 155.376 99.7923 155.035 100.333C154.702 100.866 154.224 101.278 153.6 101.569C152.976 101.852 152.235 101.993 151.378 101.993H148.532L149.393 101.219L148.732 104.515H147.109ZM149.356 101.407L148.782 100.62H151.44C152.223 100.62 152.83 100.446 153.263 100.096C153.696 99.7466 153.912 99.2348 153.912 98.5608C153.912 98.0865 153.75 97.7328 153.425 97.4998C153.109 97.2668 152.651 97.1503 152.052 97.1503H149.518L150.367 96.339L149.356 101.407ZM160.535 104.639C159.653 104.639 158.9 104.481 158.275 104.165C157.651 103.849 157.173 103.412 156.84 102.855C156.515 102.289 156.353 101.64 156.353 100.907C156.353 100.167 156.478 99.4803 156.728 98.8479C156.977 98.2071 157.339 97.6496 157.814 97.1753C158.288 96.701 158.854 96.3307 159.511 96.0644C160.169 95.7898 160.901 95.6525 161.708 95.6525C162.582 95.6525 163.331 95.8106 163.955 96.1268C164.579 96.443 165.057 96.884 165.39 97.4499C165.723 98.0074 165.889 98.6523 165.889 99.3846C165.889 100.125 165.76 100.816 165.502 101.457C165.253 102.089 164.891 102.642 164.417 103.117C163.942 103.591 163.376 103.965 162.719 104.24C162.07 104.506 161.342 104.639 160.535 104.639ZM160.672 103.217C161.221 103.217 161.716 103.121 162.157 102.929C162.598 102.73 162.973 102.459 163.281 102.118C163.597 101.769 163.838 101.369 164.005 100.92C164.171 100.462 164.254 99.9837 164.254 99.4844C164.254 99.0101 164.15 98.5899 163.942 98.2238C163.734 97.8576 163.43 97.5747 163.031 97.375C162.632 97.1753 162.141 97.0754 161.558 97.0754C161.017 97.0754 160.522 97.1753 160.073 97.375C159.632 97.5664 159.253 97.8368 158.937 98.1863C158.629 98.5275 158.392 98.9269 158.225 99.3846C158.067 99.8339 157.988 100.308 157.988 100.808C157.988 101.282 158.088 101.702 158.288 102.068C158.496 102.434 158.8 102.717 159.199 102.917C159.598 103.117 160.089 103.217 160.672 103.217ZM168.324 104.515L169.797 97.1503H166.901L167.175 95.7773H174.577L174.303 97.1503H171.407L169.946 104.515H168.324ZM176.569 99.4095H180.925L180.663 100.745H176.307L176.569 99.4095ZM175.945 103.154H180.888L180.613 104.515H174.06L175.807 95.7773H182.186L181.911 97.1378H177.143L175.945 103.154ZM182.422 104.515L184.169 95.7773H185.505L189.487 102.555L188.975 102.493L190.31 95.7773H191.921L190.173 104.515H188.838L184.868 97.737L185.38 97.7994L184.032 104.515H182.422ZM194.299 104.515L195.772 97.1503H192.876L193.151 95.7773H200.553L200.278 97.1503H197.382L195.922 104.515H194.299ZM200.036 104.515L201.783 95.7773H203.406L201.658 104.515H200.036ZM202.786 104.515L208.465 95.7773H210.075L212.247 104.515H210.637L208.815 96.6136H209.464L204.521 104.515H202.786ZM205.008 102.493L205.694 101.219H210.4L210.612 102.493H205.008ZM213.371 104.515L215.118 95.7773H216.741L215.268 103.142H219.836L219.562 104.515H213.371ZM220.272 106.399L221.545 103.641L221.707 104.602C221.433 104.602 221.2 104.51 221.009 104.327C220.825 104.144 220.734 103.911 220.734 103.628C220.734 103.304 220.842 103.042 221.058 102.842C221.275 102.634 221.529 102.53 221.82 102.53C222.094 102.53 222.323 102.622 222.506 102.805C222.689 102.979 222.781 103.212 222.781 103.504C222.781 103.653 222.752 103.799 222.694 103.94C222.644 104.082 222.552 104.257 222.419 104.465L221.271 106.399H220.272ZM61.0318 114.41H65.388L65.1258 115.745H60.7696L61.0318 114.41ZM60.4077 118.154H65.3505L65.0759 119.515H58.5229L60.2704 110.777H66.6486L66.374 112.138H61.6059L60.4077 118.154ZM66.8848 119.515L68.6323 110.777H69.9554L72.5017 117.181L71.8152 117.168L76.7955 110.777H78.1934L76.446 119.515H74.9107L76.1714 113.149L76.5333 113.161L72.3144 118.516H71.5905L69.3812 113.149L69.6932 113.186L68.4326 119.515H66.8848ZM78.806 119.515L80.5535 110.777H84.5852C85.5005 110.777 86.2036 110.944 86.6946 111.277C87.1856 111.609 87.431 112.096 87.431 112.737C87.431 113.286 87.2896 113.748 87.0067 114.122C86.7321 114.497 86.3742 114.78 85.9332 114.971C85.5005 115.163 85.0345 115.258 84.5352 115.258L84.8473 114.834C85.5047 114.834 86.0372 115 86.445 115.333C86.8527 115.658 87.0566 116.136 87.0566 116.769C87.0566 117.376 86.8902 117.884 86.5573 118.291C86.2328 118.699 85.7793 119.007 85.1968 119.215C84.6226 119.415 83.9527 119.515 83.1872 119.515H78.806ZM80.6783 118.241H83.2995C83.9735 118.241 84.4978 118.117 84.8722 117.867C85.2467 117.617 85.4339 117.251 85.4339 116.769C85.4339 116.378 85.2966 116.107 85.022 115.957C84.7474 115.799 84.3605 115.72 83.8612 115.72H80.9529L81.2026 114.459H83.7364C84.1358 114.459 84.4853 114.41 84.7849 114.31C85.0928 114.202 85.3258 114.039 85.4839 113.823C85.6503 113.598 85.7335 113.328 85.7335 113.012C85.7335 112.679 85.6004 112.437 85.3341 112.288C85.0761 112.13 84.7058 112.05 84.2232 112.05H81.914L80.6783 118.241ZM88.3016 119.515L90.049 110.777H93.4441C94.5009 110.777 95.3164 111.01 95.8906 111.476C96.4731 111.934 96.7643 112.579 96.7643 113.411C96.7643 114.143 96.5937 114.776 96.2525 115.308C95.9197 115.832 95.4412 116.24 94.8171 116.531C94.193 116.814 93.4524 116.956 92.5953 116.956H89.7495L90.5857 116.219L89.9367 119.515H88.3016ZM94.0432 119.515L92.2583 116.344H93.9808L95.7657 119.515H94.0432ZM90.5483 116.407L89.9991 115.62H92.6453C93.4358 115.62 94.0474 115.446 94.4801 115.096C94.9128 114.747 95.1292 114.235 95.1292 113.561C95.1292 113.086 94.9669 112.733 94.6424 112.5C94.3262 112.267 93.8685 112.15 93.2694 112.15H90.723L91.5718 111.339L90.5483 116.407ZM96.1957 119.515L101.875 110.777H103.485L105.657 119.515H104.047L102.224 111.614H102.874L97.9307 119.515H96.1957ZM98.4175 117.493L99.104 116.219H103.81L104.022 117.493H98.4175ZM111.09 119.639C110.199 119.639 109.438 119.481 108.806 119.165C108.173 118.849 107.686 118.412 107.345 117.855C107.012 117.289 106.846 116.64 106.846 115.907C106.846 115.167 106.971 114.48 107.22 113.848C107.478 113.207 107.845 112.65 108.319 112.175C108.793 111.701 109.359 111.331 110.016 111.064C110.674 110.79 111.41 110.652 112.226 110.652C112.983 110.652 113.649 110.777 114.223 111.027C114.797 111.277 115.238 111.639 115.546 112.113L114.373 113.099C114.131 112.766 113.823 112.512 113.449 112.338C113.074 112.163 112.629 112.075 112.113 112.075C111.556 112.075 111.052 112.171 110.603 112.363C110.154 112.554 109.771 112.824 109.455 113.174C109.139 113.515 108.897 113.914 108.731 114.372C108.564 114.821 108.481 115.3 108.481 115.808C108.481 116.282 108.585 116.702 108.793 117.068C109.001 117.434 109.309 117.717 109.717 117.917C110.125 118.117 110.624 118.217 111.215 118.217C111.706 118.217 112.159 118.133 112.575 117.967C113 117.8 113.374 117.547 113.699 117.205L114.647 118.229C114.223 118.712 113.703 119.069 113.087 119.302C112.48 119.527 111.814 119.639 111.09 119.639ZM118.237 114.41H122.593L122.331 115.745H117.974L118.237 114.41ZM117.612 118.154H122.555L122.281 119.515H115.728L117.475 110.777H123.853L123.579 112.138H118.811L117.612 118.154ZM129.312 119.515L130.784 112.15H127.889L128.163 110.777H135.565L135.29 112.15H132.395L130.934 119.515H129.312ZM142.936 110.777H144.547L142.799 119.515H141.189L142.936 110.777ZM136.67 119.515H135.048L136.795 110.777H138.418L136.67 119.515ZM142.063 115.77H137.307L137.569 114.385H142.35L142.063 115.77ZM147.662 114.41H152.018L151.756 115.745H147.4L147.662 114.41ZM147.038 118.154H151.98L151.706 119.515H145.153L146.9 110.777H153.279L153.004 112.138H148.236L147.038 118.154ZM161.395 119.639C160.522 119.639 159.769 119.481 159.136 119.165C158.504 118.849 158.013 118.412 157.663 117.855C157.322 117.289 157.152 116.64 157.152 115.907C157.152 115.167 157.276 114.48 157.526 113.848C157.784 113.207 158.15 112.65 158.624 112.175C159.099 111.701 159.669 111.331 160.334 111.064C161.009 110.79 161.757 110.652 162.581 110.652C163.38 110.652 164.075 110.777 164.666 111.027C165.257 111.277 165.731 111.63 166.089 112.088L164.915 113.061C164.624 112.712 164.279 112.462 163.879 112.313C163.488 112.154 163.031 112.075 162.506 112.075C161.94 112.075 161.429 112.171 160.971 112.363C160.513 112.546 160.122 112.808 159.798 113.149C159.473 113.49 159.224 113.889 159.049 114.347C158.874 114.796 158.787 115.283 158.787 115.808C158.787 116.282 158.891 116.702 159.099 117.068C159.307 117.434 159.619 117.717 160.035 117.917C160.451 118.117 160.967 118.217 161.583 118.217C162.04 118.217 162.469 118.142 162.868 117.992C163.276 117.834 163.659 117.601 164.017 117.293L164.653 118.566C164.221 118.907 163.717 119.173 163.143 119.365C162.577 119.548 161.995 119.639 161.395 119.639ZM163.18 118.316L163.829 115.046H165.365L164.653 118.566L163.18 118.316ZM165.37 119.515L171.05 110.777H172.66L174.832 119.515H173.222L171.399 111.614H172.048L167.105 119.515H165.37ZM167.592 117.493L168.279 116.219H172.984L173.197 117.493H167.592ZM175.955 119.515L177.703 110.777H179.026L181.572 117.181L180.886 117.168L185.866 110.777H187.264L185.517 119.515H183.981L185.242 113.149L185.604 113.161L181.385 118.516H180.661L178.452 113.149L178.764 113.186L177.503 119.515H175.955ZM190.385 114.41H194.742L194.48 115.745H190.123L190.385 114.41ZM189.761 118.154H194.704L194.43 119.515H187.877L189.624 110.777H196.002L195.728 112.138H190.96L189.761 118.154ZM196.847 119.602C196.573 119.602 196.34 119.51 196.148 119.327C195.965 119.144 195.874 118.911 195.874 118.628C195.874 118.304 195.982 118.042 196.198 117.842C196.415 117.634 196.668 117.53 196.96 117.53C197.234 117.53 197.463 117.622 197.646 117.805C197.829 117.979 197.921 118.212 197.921 118.504C197.921 118.72 197.871 118.911 197.771 119.078C197.671 119.244 197.538 119.373 197.371 119.465C197.213 119.556 197.039 119.602 196.847 119.602ZM199.895 119.602C199.62 119.602 199.387 119.51 199.196 119.327C199.013 119.144 198.921 118.911 198.921 118.628C198.921 118.304 199.029 118.042 199.246 117.842C199.462 117.634 199.716 117.53 200.007 117.53C200.282 117.53 200.51 117.622 200.693 117.805C200.876 117.979 200.968 118.212 200.968 118.504C200.968 118.72 200.918 118.911 200.818 119.078C200.718 119.244 200.585 119.373 200.419 119.465C200.261 119.556 200.086 119.602 199.895 119.602ZM202.942 119.602C202.667 119.602 202.434 119.51 202.243 119.327C202.06 119.144 201.968 118.911 201.968 118.628C201.968 118.304 202.077 118.042 202.293 117.842C202.509 117.634 202.763 117.53 203.054 117.53C203.329 117.53 203.558 117.622 203.741 117.805C203.924 117.979 204.015 118.212 204.015 118.504C204.015 118.72 203.965 118.911 203.866 119.078C203.766 119.244 203.633 119.373 203.466 119.465C203.308 119.556 203.133 119.602 202.942 119.602Z" fill="#3F3F43"/>
<path d="M247 16.5533V8.44241H250.392C250.962 8.44241 251.449 8.64395 251.852 9.04703C252.255 9.45012 252.456 9.93677 252.456 10.507V13.8988H253.194V8.44241H255.848V14.4887C255.848 15.0589 255.647 15.5456 255.244 15.9486C254.841 16.3517 254.354 16.5533 253.784 16.5533H252.456C251.886 16.5533 251.4 16.3517 250.996 15.9486C250.593 15.5456 250.392 15.0589 250.392 14.4887V11.0969H249.654V16.5533H247Z" fill="#DA002E"/>
<path d="M249.065 27.2095C248.494 27.2095 248.008 27.008 247.605 26.6049C247.202 26.2018 247 25.7152 247 25.1449V21.1632C247 20.593 247.202 20.1064 247.605 19.7033C248.008 19.3002 248.494 19.0987 249.065 19.0987H253.784C254.354 19.0987 254.841 19.3002 255.244 19.7033C255.647 20.1064 255.848 20.593 255.848 21.1632V25.1449C255.848 25.7152 255.647 26.2018 255.244 26.6049C254.841 27.008 254.354 27.2095 253.784 27.2095H249.065ZM249.654 24.5551H253.194V21.7531H249.654V24.5551Z" fill="#DA002E"/>
<path d="M247 37.8638V29.753H250.392C250.962 29.753 251.449 29.9545 251.852 30.3576C252.255 30.7607 252.456 31.2473 252.456 31.8175V35.2094H253.194V29.753H255.848V35.7992C255.848 36.3695 255.647 36.8561 255.244 37.2592C254.841 37.6623 254.354 37.8638 253.784 37.8638H252.456C251.886 37.8638 251.4 37.6623 250.996 37.2592C250.593 36.8561 250.392 36.3695 250.392 35.7992V32.4074H249.654V37.8638H247Z" fill="#DA002E"/>
<rect x="256" y="41" width="7.69928" height="2.89286" transform="rotate(90 256 41)" fill="#DA002E"/>
<path d="M253.107 43.5732H250.091C250.091 42.152 251.243 40.9999 252.664 40.9999H253.107V43.5732Z" fill="#DA002E"/>
<path d="M252.342 43.4902V46.4492C252.342 47.6918 251.334 48.6992 250.092 48.6992V43.4902H252.342Z" fill="#DA002E"/>
<path d="M247 41V46.4493C247 47.6919 248.007 48.6993 249.25 48.6993V41H247Z" fill="#DA002E"/>
<rect x="250.09" y="46.2295" width="2.46958" height="0.840659" transform="rotate(90 250.09 46.2295)" fill="#DA002E"/>
</svg>
