<svg width="282" height="36" viewBox="0 0 282 36" fill="none" xmlns="http://www.w3.org/2000/svg">
<path d="M5.8621 0.675781L16.6484 0.675781L11.0288 35.8484H0L5.8621 0.675781Z" fill="#7F1BB6"/>
<path d="M22.5105 0.675781L33.2968 0.675781L27.6773 35.8484H16.6484L22.5105 0.675781Z" fill="#7F1BB6"/>
<path d="M39.159 0.675781L49.9452 0.675781L44.3257 35.8484H33.2969L39.159 0.675781Z" fill="#7F1BB6"/>
<path d="M53.0662 0.675781L231.945 0.675781L228.695 35.6758H49.9453L53.0662 0.675781Z" fill="#7F1BB6"/>
<path d="M98.5945 25V8.58612H104.808C106.137 8.58612 107.231 8.81279 108.091 9.26613C108.966 9.71946 109.615 10.3291 110.037 11.0951C110.475 11.8455 110.694 12.6896 110.694 13.6275C110.694 14.5029 110.483 15.3236 110.061 16.0896C109.654 16.8556 109.013 17.4731 108.138 17.942C107.263 18.3954 106.145 18.622 104.785 18.622H101.877V25H98.5945ZM107.083 25L103.73 17.8013H107.294L110.835 25H107.083ZM101.877 16.2303H104.621C105.543 16.2303 106.223 16.0036 106.661 15.5503C107.114 15.097 107.341 14.4951 107.341 13.7448C107.341 13.0101 107.122 12.4238 106.684 11.9861C106.246 11.5484 105.551 11.3296 104.597 11.3296H101.877V16.2303ZM113.456 25V8.58612H124.312V11.2358H116.739V15.3862H123.609V17.942H116.739V22.3503H124.312V25H113.456ZM127.172 25V8.58612H133.409C134.738 8.58612 135.84 8.81279 136.716 9.26613C137.591 9.71946 138.24 10.3369 138.662 11.1186C139.1 11.8845 139.318 12.7599 139.318 13.7448C139.318 14.6514 139.107 15.4956 138.685 16.2772C138.279 17.0432 137.638 17.6685 136.763 18.1531C135.887 18.6377 134.769 18.88 133.409 18.88H130.455V25H127.172ZM130.455 16.2303H133.198C134.183 16.2303 134.887 16.0036 135.309 15.5503C135.747 15.097 135.965 14.4951 135.965 13.7448C135.965 12.9632 135.747 12.3535 135.309 11.9158C134.887 11.4781 134.183 11.2592 133.198 11.2592H130.455V16.2303ZM149.264 25.2814C147.67 25.2814 146.263 24.9218 145.044 24.2028C143.824 23.4837 142.863 22.491 142.16 21.2248C141.472 19.943 141.128 18.4657 141.128 16.7931C141.128 15.1204 141.472 13.651 142.16 12.3848C142.863 11.1029 143.824 10.1025 145.044 9.38337C146.263 8.66429 147.67 8.30474 149.264 8.30474C150.875 8.30474 152.289 8.66429 153.509 9.38337C154.744 10.1025 155.697 11.1029 156.369 12.3848C157.057 13.651 157.401 15.1204 157.401 16.7931C157.401 18.4657 157.057 19.943 156.369 21.2248C155.697 22.491 154.744 23.4837 153.509 24.2028C152.289 24.9218 150.875 25.2814 149.264 25.2814ZM149.264 22.3269C150.249 22.3269 151.101 22.1002 151.82 21.6469C152.539 21.1935 153.094 20.5604 153.485 19.7476C153.876 18.919 154.071 17.9342 154.071 16.7931C154.071 15.6519 153.876 14.6749 153.485 13.862C153.094 13.0335 152.539 12.3926 151.82 11.9392C151.101 11.4859 150.249 11.2592 149.264 11.2592C148.295 11.2592 147.451 11.4859 146.732 11.9392C146.029 12.3926 145.474 13.0335 145.067 13.862C144.676 14.6749 144.481 15.6519 144.481 16.7931C144.481 17.9342 144.676 18.919 145.067 19.7476C145.474 20.5604 146.029 21.1935 146.732 21.6469C147.451 22.1002 148.295 22.3269 149.264 22.3269ZM160.078 25V8.58612H166.292C167.62 8.58612 168.715 8.81279 169.574 9.26613C170.45 9.71946 171.099 10.3291 171.521 11.0951C171.958 11.8455 172.177 12.6896 172.177 13.6275C172.177 14.5029 171.966 15.3236 171.544 16.0896C171.138 16.8556 170.497 17.4731 169.621 17.942C168.746 18.3954 167.628 18.622 166.268 18.622H163.361V25H160.078ZM168.566 25L165.213 17.8013H168.777L172.318 25H168.566ZM163.361 16.2303H166.104C167.026 16.2303 167.706 16.0036 168.144 15.5503C168.597 15.097 168.824 14.4951 168.824 13.7448C168.824 13.0101 168.605 12.4238 168.168 11.9861C167.73 11.5484 167.034 11.3296 166.081 11.3296H163.361V16.2303ZM178.761 25V11.2358H173.978V8.58612H186.804V11.2358H182.021V25H178.761Z" fill="white"/>
<path d="M237.807 0.675781L248.594 0.675781L242.974 35.8484H231.945L237.807 0.675781Z" fill="#7F1BB6"/>
<path d="M254.456 0.675781L265.242 0.675781L259.623 35.8484H248.594L254.456 0.675781Z" fill="#7F1BB6"/>
<path d="M271.104 0.675781L281.891 0.675781L276.271 35.8484H265.242L271.104 0.675781Z" fill="#7F1BB6"/>
</svg>
